<svg xmlns="http://www.w3.org/2000/svg" xmlns:xlink="http://www.w3.org/1999/xlink" version="1.1" class="marks" width="951" height="227" viewBox="0 0 951 227"><rect width="951" height="227" fill="white"/><g fill="none" stroke-miterlimit="10" transform="translate(393,5)"><g class="mark-group role-frame root" role="graphics-object" aria-roledescription="group mark container"><g transform="translate(0,0)"><path class="background" aria-hidden="true" d="M0.5,0.5h400v200h-400Z" stroke="#ddd"/><g><g class="mark-group role-axis" role="graphics-symbol" aria-roledescription="axis" aria-label="X-axis for a linear scale with values from −1.0 to 1.0"><g transform="translate(0.5,200.5)"><path class="background" aria-hidden="true" d="M0,0h0v0h0Z" pointer-events="none"/><g><g class="mark-rule role-axis-grid" pointer-events="none"><line transform="translate(0,0)" x2="0" y2="-200" stroke="#ddd" stroke-width="1" opacity="1"/><line transform="translate(40,0)" x2="0" y2="-200" stroke="#ddd" stroke-width="1" opacity="1"/><line transform="translate(80,0)" x2="0" y2="-200" stroke="#ddd" stroke-width="1" opacity="1"/><line transform="translate(120,0)" x2="0" y2="-200" stroke="#ddd" stroke-width="1" opacity="1"/><line transform="translate(160,0)" x2="0" y2="-200" stroke="#ddd" stroke-width="1" opacity="1"/><line transform="translate(200,0)" x2="0" y2="-200" stroke="#ddd" stroke-width="1" opacity="1"/><line transform="translate(240,0)" x2="0" y2="-200" stroke="#ddd" stroke-width="1" opacity="1"/><line transform="translate(280,0)" x2="0" y2="-200" stroke="#ddd" stroke-width="1" opacity="1"/><line transform="translate(320,0)" x2="0" y2="-200" stroke="#ddd" stroke-width="1" opacity="1"/><line transform="translate(360,0)" x2="0" y2="-200" stroke="#ddd" stroke-width="1" opacity="1"/><line transform="translate(400,0)" x2="0" y2="-200" stroke="#ddd" stroke-width="1" opacity="1"/></g></g><path class="foreground" aria-hidden="true" d="" pointer-events="none" display="none"/></g></g><g class="mark-group role-axis" role="graphics-symbol" aria-roledescription="axis" aria-label="X-axis for a linear scale with values from −1.0 to 1.0"><g transform="translate(0.5,200.5)"><path class="background" aria-hidden="true" d="M0,0h0v0h0Z" pointer-events="none"/><g><g class="mark-rule role-axis-tick" pointer-events="none"><line transform="translate(0,0)" x2="0" y2="5" stroke="#888" stroke-width="1" opacity="1"/><line transform="translate(40,0)" x2="0" y2="5" stroke="#888" stroke-width="1" opacity="1"/><line transform="translate(80,0)" x2="0" y2="5" stroke="#888" stroke-width="1" opacity="1"/><line transform="translate(120,0)" x2="0" y2="5" stroke="#888" stroke-width="1" opacity="1"/><line transform="translate(160,0)" x2="0" y2="5" stroke="#888" stroke-width="1" opacity="1"/><line transform="translate(200,0)" x2="0" y2="5" stroke="#888" stroke-width="1" opacity="1"/><line transform="translate(240,0)" x2="0" y2="5" stroke="#888" stroke-width="1" opacity="1"/><line transform="translate(280,0)" x2="0" y2="5" stroke="#888" stroke-width="1" opacity="1"/><line transform="translate(320,0)" x2="0" y2="5" stroke="#888" stroke-width="1" opacity="1"/><line transform="translate(360,0)" x2="0" y2="5" stroke="#888" stroke-width="1" opacity="1"/><line transform="translate(400,0)" x2="0" y2="5" stroke="#888" stroke-width="1" opacity="1"/></g><g class="mark-text role-axis-label" pointer-events="none"><text text-anchor="start" transform="translate(0,15)" font-family="sans-serif" font-size="10px" fill="#000" opacity="1">−1.0</text><text text-anchor="middle" transform="translate(39.99999999999999,15)" font-family="sans-serif" font-size="10px" fill="#000" opacity="1">−0.8</text><text text-anchor="middle" transform="translate(80,15)" font-family="sans-serif" font-size="10px" fill="#000" opacity="1">−0.6</text><text text-anchor="middle" transform="translate(120,15)" font-family="sans-serif" font-size="10px" fill="#000" opacity="1">−0.4</text><text text-anchor="middle" transform="translate(160,15)" font-family="sans-serif" font-size="10px" fill="#000" opacity="1">−0.2</text><text text-anchor="middle" transform="translate(200,15)" font-family="sans-serif" font-size="10px" fill="#000" opacity="1">0.0</text><text text-anchor="middle" transform="translate(240,15)" font-family="sans-serif" font-size="10px" fill="#000" opacity="1">0.2</text><text text-anchor="middle" transform="translate(280,15)" font-family="sans-serif" font-size="10px" fill="#000" opacity="1">0.4</text><text text-anchor="middle" transform="translate(320,15)" font-family="sans-serif" font-size="10px" fill="#000" opacity="1">0.6</text><text text-anchor="middle" transform="translate(360,15)" font-family="sans-serif" font-size="10px" fill="#000" opacity="1">0.8</text><text text-anchor="end" transform="translate(400,15)" font-family="sans-serif" font-size="10px" fill="#000" opacity="1">1.0</text></g><g class="mark-rule role-axis-domain" pointer-events="none"><line transform="translate(0,0)" x2="400" y2="0" stroke="#888" stroke-width="1" opacity="1"/></g></g><path class="foreground" aria-hidden="true" d="" pointer-events="none" display="none"/></g></g><g class="mark-group role-axis" role="graphics-symbol" aria-roledescription="axis" aria-label="Y-axis for a discrete scale with 10 values: Q1: I think that I would like to use this application frequently., Q2: I found this application unnecessarily complex., Q3: I thought this application was easy to use., Q4: I think that I would need assistance to be able to use this application., Q5: I found the various functions in this application were well integrated., ending with Q10: I needed to learn a lot of things before I could get going with this application."><g transform="translate(-9.5,0.5)"><path class="background" aria-hidden="true" d="M0,0h0v0h0Z" pointer-events="none"/><g><g class="mark-text role-axis-label" pointer-events="none"><text text-anchor="end" transform="translate(-2,12.5)" font-family="sans-serif" font-size="10px" fill="#000" opacity="1">Q1: I think that I would like to use this application frequently.</text><text text-anchor="end" transform="translate(-2,32.5)" font-family="sans-serif" font-size="10px" fill="#000" opacity="1">Q2: I found this application unnecessarily complex.</text><text text-anchor="end" transform="translate(-2,52.5)" font-family="sans-serif" font-size="10px" fill="#000" opacity="1">Q3: I thought this application was easy to use.</text><text text-anchor="end" transform="translate(-2,72.5)" font-family="sans-serif" font-size="10px" fill="#000" opacity="1">Q4: I think that I would need assistance to be able to use this application.</text><text text-anchor="end" transform="translate(-2,92.5)" font-family="sans-serif" font-size="10px" fill="#000" opacity="1">Q5: I found the various functions in this application were well integrated.</text><text text-anchor="end" transform="translate(-2,112.5)" font-family="sans-serif" font-size="10px" fill="#000" opacity="1">Q6: I thought there was too much inconsistency in this application.</text><text text-anchor="end" transform="translate(-2,132.5)" font-family="sans-serif" font-size="10px" fill="#000" opacity="1">Q7: I would imagine that most people would learn to use this application very quickly.</text><text text-anchor="end" transform="translate(-2,152.5)" font-family="sans-serif" font-size="10px" fill="#000" opacity="1">Q8: I found this application very cumbersome/awkward to use.</text><text text-anchor="end" transform="translate(-2,172.5)" font-family="sans-serif" font-size="10px" fill="#000" opacity="1">Q9: I felt very confident using this application.</text><text text-anchor="end" transform="translate(-2,192.5)" font-family="sans-serif" font-size="10px" fill="#000" opacity="1">Q10: I needed to learn a lot of things before I could get going with this application.</text></g></g><path class="foreground" aria-hidden="true" d="" pointer-events="none" display="none"/></g></g><g class="mark-rect role-mark marks" role="graphics-symbol" aria-roledescription="rect mark container"><path d="M140,1h0v18h0Z" fill="#c30d24"/><path d="M140,1h40v18h-40Z" fill="#f3a583"/><path d="M180,1h40.00000000000003v18h-40.00000000000003Z" fill="#cccccc"/><path d="M220.00000000000003,1h79.99999999999997v18h-79.99999999999997Z" fill="#94c6da"/><path d="M300,1h40v18h-40Z" fill="#1770ab"/><path d="M0,21h120v18h-120Z" fill="#c30d24"/><path d="M120,21h80v18h-80Z" fill="#f3a583"/><path d="M200,21h0v18h0Z" fill="#cccccc"/><path d="M200,21h0v18h0Z" fill="#94c6da"/><path d="M200,21h0v18h0Z" fill="#1770ab"/><path d="M200,41h0v18h0Z" fill="#c30d24"/><path d="M200,41h0v18h0Z" fill="#f3a583"/><path d="M200,41h0v18h0Z" fill="#cccccc"/><path d="M200,41h160v18h-160Z" fill="#94c6da"/><path d="M360,41h40v18h-40Z" fill="#1770ab"/><path d="M39.99999999999999,61h160v18h-160Z" fill="#c30d24"/><path d="M200,61h0v18h0Z" fill="#f3a583"/><path d="M200,61h0v18h0Z" fill="#cccccc"/><path d="M200,61h40v18h-40Z" fill="#94c6da"/><path d="M240,61h0v18h0Z" fill="#1770ab"/><path d="M140,81h0v18h0Z" fill="#c30d24"/><path d="M140,81h40v18h-40Z" fill="#f3a583"/><path d="M180,81h40.00000000000003v18h-40.00000000000003Z" fill="#cccccc"/><path d="M220.00000000000003,81h79.99999999999997v18h-79.99999999999997Z" fill="#94c6da"/><path d="M300,81h40v18h-40Z" fill="#1770ab"/><path d="M19.999999999999996,101h120v18h-120Z" fill="#c30d24"/><path d="M140,101h40v18h-40Z" fill="#f3a583"/><path d="M180,101h40.00000000000003v18h-40.00000000000003Z" fill="#cccccc"/><path d="M220.00000000000003,101h0v18h0Z" fill="#94c6da"/><path d="M220.00000000000003,101h0v18h0Z" fill="#1770ab"/><path d="M200,121h0v18h0Z" fill="#c30d24"/><path d="M200,121h0v18h0Z" fill="#f3a583"/><path d="M200,121h0v18h0Z" fill="#cccccc"/><path d="M200,121h0v18h0Z" fill="#94c6da"/><path d="M200,121h200v18h-200Z" fill="#1770ab"/><path d="M19.999999999999996,141h120v18h-120Z" fill="#c30d24"/><path d="M140,141h40v18h-40Z" fill="#f3a583"/><path d="M180,141h40.00000000000003v18h-40.00000000000003Z" fill="#cccccc"/><path d="M220.00000000000003,141h0v18h0Z" fill="#94c6da"/><path d="M220.00000000000003,141h0v18h0Z" fill="#1770ab"/><path d="M200,161h0v18h0Z" fill="#c30d24"/><path d="M200,161h0v18h0Z" fill="#f3a583"/><path d="M200,161h0v18h0Z" fill="#cccccc"/><path d="M200,161h120v18h-120Z" fill="#94c6da"/><path d="M320,161h80v18h-80Z" fill="#1770ab"/><path d="M59.999999999999986,181h80.00000000000001v18h-80.00000000000001Z" fill="#c30d24"/><path d="M140,181h40v18h-40Z" fill="#f3a583"/><path d="M180,181h40.00000000000003v18h-40.00000000000003Z" fill="#cccccc"/><path d="M220.00000000000003,181h39.99999999999997v18h-39.99999999999997Z" fill="#94c6da"/><path d="M260,181h0v18h0Z" fill="#1770ab"/></g><g class="mark-group role-legend" role="graphics-symbol" aria-roledescription="legend" aria-label="Symbol legend for fill color with 5 values: Strongly disagree, Disagree, Neither agree nor disagree, Agree, Strongly agree"><g transform="translate(418,0)"><path class="background" aria-hidden="true" d="M0,0h135v63h-135Z" pointer-events="none"/><g><g class="mark-group role-legend-entry"><g transform="translate(0,0)"><path class="background" aria-hidden="true" d="M0,0h0v0h0Z" pointer-events="none"/><g><g class="mark-group role-scope" role="graphics-object" aria-roledescription="group mark container"><g transform="translate(0,0)"><path class="background" aria-hidden="true" d="M0,0h134.9599609375v11h-134.9599609375Z" pointer-events="none" opacity="1"/><g><g class="mark-symbol role-legend-symbol" pointer-events="none"><path transform="translate(6,6)" d="M-5,-5h10v10h-10Z" fill="#c30d24" stroke-width="1.5" opacity="1"/></g><g class="mark-text role-legend-label" pointer-events="none"><text text-anchor="start" transform="translate(16,9)" font-family="sans-serif" font-size="10px" fill="#000" opacity="1">Strongly disagree</text></g></g><path class="foreground" aria-hidden="true" d="" pointer-events="none" display="none"/></g><g transform="translate(0,13)"><path class="background" aria-hidden="true" d="M0,0h134.9599609375v11h-134.9599609375Z" pointer-events="none" opacity="1"/><g><g class="mark-symbol role-legend-symbol" pointer-events="none"><path transform="translate(6,6)" d="M-5,-5h10v10h-10Z" fill="#f3a583" stroke-width="1.5" opacity="1"/></g><g class="mark-text role-legend-label" pointer-events="none"><text text-anchor="start" transform="translate(16,9)" font-family="sans-serif" font-size="10px" fill="#000" opacity="1">Disagree</text></g></g><path class="foreground" aria-hidden="true" d="" pointer-events="none" display="none"/></g><g transform="translate(0,26)"><path class="background" aria-hidden="true" d="M0,0h134.9599609375v11h-134.9599609375Z" pointer-events="none" opacity="1"/><g><g class="mark-symbol role-legend-symbol" pointer-events="none"><path transform="translate(6,6)" d="M-5,-5h10v10h-10Z" fill="#cccccc" stroke-width="1.5" opacity="1"/></g><g class="mark-text role-legend-label" pointer-events="none"><text text-anchor="start" transform="translate(16,9)" font-family="sans-serif" font-size="10px" fill="#000" opacity="1">Neither agree nor disagree</text></g></g><path class="foreground" aria-hidden="true" d="" pointer-events="none" display="none"/></g><g transform="translate(0,39)"><path class="background" aria-hidden="true" d="M0,0h134.9599609375v11h-134.9599609375Z" pointer-events="none" opacity="1"/><g><g class="mark-symbol role-legend-symbol" pointer-events="none"><path transform="translate(6,6)" d="M-5,-5h10v10h-10Z" fill="#94c6da" stroke-width="1.5" opacity="1"/></g><g class="mark-text role-legend-label" pointer-events="none"><text text-anchor="start" transform="translate(16,9)" font-family="sans-serif" font-size="10px" fill="#000" opacity="1">Agree</text></g></g><path class="foreground" aria-hidden="true" d="" pointer-events="none" display="none"/></g><g transform="translate(0,52)"><path class="background" aria-hidden="true" d="M0,0h134.9599609375v11h-134.9599609375Z" pointer-events="none" opacity="1"/><g><g class="mark-symbol role-legend-symbol" pointer-events="none"><path transform="translate(6,6)" d="M-5,-5h10v10h-10Z" fill="#1770ab" stroke-width="1.5" opacity="1"/></g><g class="mark-text role-legend-label" pointer-events="none"><text text-anchor="start" transform="translate(16,9)" font-family="sans-serif" font-size="10px" fill="#000" opacity="1">Strongly agree</text></g></g><path class="foreground" aria-hidden="true" d="" pointer-events="none" display="none"/></g></g></g><path class="foreground" aria-hidden="true" d="" pointer-events="none" display="none"/></g></g></g><path class="foreground" aria-hidden="true" d="" pointer-events="none" display="none"/></g></g></g><path class="foreground" aria-hidden="true" d="" display="none"/></g></g></g></svg>