<?xml version="1.0" encoding="utf-8"?>
<!-- Generator: Adobe Illustrator 25.3.1, SVG Export Plug-In . SVG Version: 6.00 Build 0)  -->
<svg version="1.1" id="Layer_1" xmlns="http://www.w3.org/2000/svg" xmlns:xlink="http://www.w3.org/1999/xlink" x="0px" y="0px"
	 viewBox="0 0 1412 246" style="enable-background:new 0 0 1412 246;" xml:space="preserve">
<style type="text/css">
	.st0{fill:#FFFFFF;}
	.st1{fill:none;}
	.st2{fill:none;stroke:#DDDDDD;stroke-miterlimit:10;}
	.st3{display:none;fill:none;stroke:#DDDDDD;stroke-miterlimit:10;}
	.st4{fill:none;stroke:#888888;stroke-miterlimit:10;}
	.st5{font-family:'Helvetica';}
	.st6{font-size:10px;}
	.st7{display:none;fill:none;stroke:#888888;stroke-miterlimit:10;}
	.st8{display:none;}
	.st9{fill:#C30D24;}
	.st10{fill:#F3A583;}
	.st11{fill:#CCCCCC;}
	.st12{fill:#94C6DA;}
	.st13{fill:#1770AB;}
	.st14{font-family:'Helvetica-Bold';}
	.st15{font-size:13px;}
	.st16{opacity:0;enable-background:new    ;}
</style>
<rect class="st0" width="1412" height="246"/>
<g transform="translate(428,23)">
	<g>
		<g transform="translate(0,0)">
			<path class="st1" d="M0,0L0,0L0,0L0,0z"/>
			<g>
				<g>
					<g transform="translate(0,0)">
						<path class="st2" d="M0.5,0.5h400v200H0.5V0.5z"/>
						<g>
							<g>
								<g transform="translate(0.5,200.5)">
									<path pointer-events="none" class="st1" d="M0,0L0,0L0,0L0,0z"/>
									<g>
										<g pointer-events="none">
											<line class="st2" x1="0" y1="0" x2="0" y2="-200"/>
											<line class="st2" x1="33" y1="0" x2="33" y2="-200"/>
											<line class="st2" x1="67" y1="0" x2="67" y2="-200"/>
											<line class="st2" x1="100" y1="0" x2="100" y2="-200"/>
											<line class="st2" x1="133" y1="0" x2="133" y2="-200"/>
											<line class="st2" x1="167" y1="0" x2="167" y2="-200"/>
											<line class="st2" x1="200" y1="0" x2="200" y2="-200"/>
											<line class="st2" x1="233" y1="0" x2="233" y2="-200"/>
											<line class="st2" x1="267" y1="0" x2="267" y2="-200"/>
											<line class="st2" x1="300" y1="0" x2="300" y2="-200"/>
											<line class="st2" x1="333" y1="0" x2="333" y2="-200"/>
											<line class="st2" x1="367" y1="0" x2="367" y2="-200"/>
											<line class="st2" x1="400" y1="0" x2="400" y2="-200"/>
										</g>
									</g>
									<path pointer-events="none" class="st3" d="M0,0"/>
								</g>
							</g>
							<g>
								<g transform="translate(0.5,200.5)">
									<path pointer-events="none" class="st1" d="M0,0L0,0L0,0L0,0z"/>
									<g>
										<g pointer-events="none">
											<line class="st4" x1="0" y1="0" x2="0" y2="5"/>
											<line class="st4" x1="33" y1="0" x2="33" y2="5"/>
											<line class="st4" x1="67" y1="0" x2="67" y2="5"/>
											<line class="st4" x1="100" y1="0" x2="100" y2="5"/>
											<line class="st4" x1="133" y1="0" x2="133" y2="5"/>
											<line class="st4" x1="167" y1="0" x2="167" y2="5"/>
											<line class="st4" x1="200" y1="0" x2="200" y2="5"/>
											<line class="st4" x1="233" y1="0" x2="233" y2="5"/>
											<line class="st4" x1="267" y1="0" x2="267" y2="5"/>
											<line class="st4" x1="300" y1="0" x2="300" y2="5"/>
											<line class="st4" x1="333" y1="0" x2="333" y2="5"/>
											<line class="st4" x1="367" y1="0" x2="367" y2="5"/>
											<line class="st4" x1="400" y1="0" x2="400" y2="5"/>
										</g>
										<g pointer-events="none">
											<text transform="matrix(1 0 0 1 0 15)" class="st5 st6">−0.2</text>
											<text transform="matrix(1 0 0 1 23.4627 15)" class="st5 st6">−0.1</text>
											<text transform="matrix(1 0 0 1 59.716 15)" class="st5 st6">0.0</text>
											<text transform="matrix(1 0 0 1 93.0493 15)" class="st5 st6">0.1</text>
											<text transform="matrix(1 0 0 1 126.3826 15)" class="st5 st6">0.2</text>
											<text transform="matrix(1 0 0 1 159.716 15)" class="st5 st6">0.3</text>
											<text transform="matrix(1 0 0 1 193.0493 15)" class="st5 st6">0.4</text>
											<text transform="matrix(1 0 0 1 226.3826 15)" class="st5 st6">0.5</text>
											<text transform="matrix(1 0 0 1 259.7159 15)" class="st5 st6">0.6</text>
											<text transform="matrix(1 0 0 1 293.0493 15)" class="st5 st6">0.7</text>
											<text transform="matrix(1 0 0 1 326.3826 15)" class="st5 st6">0.8</text>
											<text transform="matrix(1 0 0 1 359.7159 15)" class="st5 st6">0.9</text>
											<text transform="matrix(1 0 0 1 386.0986 15)" class="st5 st6">1.0</text>
										</g>
										<g pointer-events="none">
											<line class="st4" x1="0" y1="0" x2="400" y2="0"/>
										</g>
									</g>
									<path pointer-events="none" class="st7" d="M0,0"/>
								</g>
							</g>
							<g>
								<g transform="translate(-9.5,0.5)">
									<path pointer-events="none" class="st1" d="M0,0L0,0L0,0L0,0z"/>
									<g>
										<g pointer-events="none">
											<text transform="matrix(1 0 0 1 -185.9795 12.5)" class="st5 st6">Q1: I have friends available to me at work</text>
											<text transform="matrix(1 0 0 1 -411.6387 32.5)" class="st5 st6">Q2: I have one or more co-workers available who I talk to about day-to-day problems at work</text>
											<text transform="matrix(1 0 0 1 -349.9736 52.5)" class="st5 st6">Q3: I have co-workers available whom I can depend on when I have a problem</text>
											<text transform="matrix(1 0 0 1 -347.2002 72.5)" class="st5 st6">Q4: I have enough people available at work with whom I can talk about my job</text>
											<text transform="matrix(1 0 0 1 -166.541 92.5)" class="st5 st6">Q5: I have people around me at work</text>
											<text transform="matrix(1 0 0 1 -301.0283 112.5)" class="st5 st6">Q6: I am well integrated with the department/company where I work</text>
											<text transform="matrix(1 0 0 1 -302.7227 132.5)" class="st5 st6">Q7: I am kept in the loop regarding company social events/functions</text>
											<text transform="matrix(1 0 0 1 -169.2998 152.5)" class="st5 st6">Q8: I am part of the company network</text>
											<text transform="matrix(1 0 0 1 -248.792 172.5)" class="st5 st6">Q9: Upper management knows about my achievements</text>
											<text transform="matrix(1 0 0 1 -337.1465 192.5)" class="st5 st6">Q10: My supervisor communicates my achievements to upper management</text>
										</g>
									</g>
									<path pointer-events="none" class="st8" d="M0,0"/>
								</g>
							</g>
							<g>
								<path class="st9" d="M66.7,1L66.7,1v18l0,0V1z"/>
								<path class="st10" d="M66.7,1L66.7,1v18l0,0V1z"/>
								<path class="st11" d="M66.7,1L66.7,1v18l0,0V1z"/>
								<path class="st12" d="M66.7,1h266.7v18H66.7L66.7,1z"/>
								<path class="st13" d="M333.3,1H400v18h-66.7V1z"/>
								<path class="st9" d="M66.7,21L66.7,21v18l0,0V21z"/>
								<path class="st10" d="M66.7,21L66.7,21v18l0,0V21z"/>
								<path class="st11" d="M66.7,21L66.7,21v18l0,0V21z"/>
								<path class="st12" d="M66.7,21h266.7v18H66.7L66.7,21z"/>
								<path class="st13" d="M333.3,21H400v18h-66.7V21z"/>
								<path class="st9" d="M66.7,41L66.7,41v18l0,0V41z"/>
								<path class="st10" d="M66.7,41L66.7,41v18l0,0V41z"/>
								<path class="st11" d="M66.7,41L66.7,41v18l0,0V41z"/>
								<path class="st12" d="M66.7,41H200v18H66.7L66.7,41z"/>
								<path class="st13" d="M200,41h200v18H200V41z"/>
								<path class="st9" d="M66.7,61L66.7,61v18l0,0V61z"/>
								<path class="st10" d="M66.7,61L66.7,61v18l0,0V61z"/>
								<path class="st11" d="M66.7,61L66.7,61v18l0,0V61z"/>
								<path class="st12" d="M66.7,61H200v18H66.7L66.7,61z"/>
								<path class="st13" d="M200,61h200v18H200V61z"/>
								<path class="st9" d="M66.7,81L66.7,81v18l0,0V81z"/>
								<path class="st10" d="M66.7,81L66.7,81v18l0,0V81z"/>
								<path class="st11" d="M33.3,81H100v18H33.3L33.3,81z"/>
								<path class="st12" d="M100,81h133.3v18H100V81z"/>
								<path class="st13" d="M233.3,81h133.3v18H233.3V81z"/>
								<path class="st9" d="M66.7,101L66.7,101v18l0,0V101z"/>
								<path class="st10" d="M66.7,101L66.7,101v18l0,0V101z"/>
								<path class="st11" d="M66.7,101L66.7,101v18l0,0V101z"/>
								<path class="st12" d="M66.7,101h200v18h-200L66.7,101z"/>
								<path class="st13" d="M266.7,101H400v18H266.7L266.7,101z"/>
								<path class="st9" d="M66.7,121L66.7,121v18l0,0V121z"/>
								<path class="st10" d="M66.7,121L66.7,121v18l0,0V121z"/>
								<path class="st11" d="M33.3,121H100v18H33.3L33.3,121z"/>
								<path class="st12" d="M100,121h133.3v18H100V121z"/>
								<path class="st13" d="M233.3,121h133.3v18H233.3V121z"/>
								<path class="st9" d="M66.7,141L66.7,141v18l0,0V141z"/>
								<path class="st10" d="M66.7,141L66.7,141v18l0,0V141z"/>
								<path class="st11" d="M66.7,141L66.7,141v18l0,0V141z"/>
								<path class="st12" d="M66.7,141H200v18H66.7L66.7,141z"/>
								<path class="st13" d="M200,141h200v18H200V141z"/>
								<path class="st9" d="M66.7,161L66.7,161v18l0,0V161z"/>
								<path class="st10" d="M0,161h66.7v18H0V161z"/>
								<path class="st11" d="M66.7,161L66.7,161v18l0,0V161z"/>
								<path class="st12" d="M66.7,161h200v18h-200L66.7,161z"/>
								<path class="st13" d="M266.7,161h66.7v18h-66.7V161z"/>
								<path class="st9" d="M66.7,181L66.7,181v18l0,0V181z"/>
								<path class="st10" d="M0,181h66.7v18H0V181z"/>
								<path class="st11" d="M66.7,181L66.7,181v18l0,0V181z"/>
								<path class="st12" d="M66.7,181h200v18h-200L66.7,181z"/>
								<path class="st13" d="M266.7,181h66.7v18h-66.7V181z"/>
							</g>
							<g>
								<g transform="translate(200,-17)">
									<path pointer-events="none" class="st1" d="M0,0L0,0L0,0L0,0z"/>
									<g>
										<g pointer-events="none">
											<text transform="matrix(1 0 0 1 -30.7004 10)" class="st14 st15">Pre-Study</text>
										</g>
									</g>
									<path pointer-events="none" class="st8" d="M0,0"/>
								</g>
							</g>
						</g>
						<path class="st8" d="M0,0"/>
					</g>
				</g>
				<g>
					<g transform="translate(424,0)">
						<path class="st2" d="M0.5,0.5h400v200H0.5V0.5z"/>
						<g>
							<g>
								<g transform="translate(0.5,200.5)">
									<path pointer-events="none" class="st1" d="M0,0L0,0L0,0L0,0z"/>
									<g>
										<g pointer-events="none">
											<line class="st2" x1="0" y1="0" x2="0" y2="-200"/>
											<line class="st2" x1="29" y1="0" x2="29" y2="-200"/>
											<line class="st2" x1="57" y1="0" x2="57" y2="-200"/>
											<line class="st2" x1="86" y1="0" x2="86" y2="-200"/>
											<line class="st2" x1="114" y1="0" x2="114" y2="-200"/>
											<line class="st2" x1="143" y1="0" x2="143" y2="-200"/>
											<line class="st2" x1="171" y1="0" x2="171" y2="-200"/>
											<line class="st2" x1="200" y1="0" x2="200" y2="-200"/>
											<line class="st2" x1="229" y1="0" x2="229" y2="-200"/>
											<line class="st2" x1="257" y1="0" x2="257" y2="-200"/>
											<line class="st2" x1="286" y1="0" x2="286" y2="-200"/>
											<line class="st2" x1="314" y1="0" x2="314" y2="-200"/>
											<line class="st2" x1="343" y1="0" x2="343" y2="-200"/>
											<line class="st2" x1="371" y1="0" x2="371" y2="-200"/>
											<line class="st2" x1="400" y1="0" x2="400" y2="-200"/>
										</g>
									</g>
									<path pointer-events="none" class="st3" d="M0,0"/>
								</g>
							</g>
							<g>
								<g transform="translate(0.5,200.5)">
									<path pointer-events="none" class="st1" d="M0,0L0,0L0,0L0,0z"/>
									<g>
										<g pointer-events="none">
											<line class="st4" x1="0" y1="0" x2="0" y2="5"/>
											<line class="st4" x1="29" y1="0" x2="29" y2="5"/>
											<line class="st4" x1="57" y1="0" x2="57" y2="5"/>
											<line class="st4" x1="86" y1="0" x2="86" y2="5"/>
											<line class="st4" x1="114" y1="0" x2="114" y2="5"/>
											<line class="st4" x1="143" y1="0" x2="143" y2="5"/>
											<line class="st4" x1="171" y1="0" x2="171" y2="5"/>
											<line class="st4" x1="200" y1="0" x2="200" y2="5"/>
											<line class="st4" x1="229" y1="0" x2="229" y2="5"/>
											<line class="st4" x1="257" y1="0" x2="257" y2="5"/>
											<line class="st4" x1="286" y1="0" x2="286" y2="5"/>
											<line class="st4" x1="314" y1="0" x2="314" y2="5"/>
											<line class="st4" x1="343" y1="0" x2="343" y2="5"/>
											<line class="st4" x1="371" y1="0" x2="371" y2="5"/>
											<line class="st4" x1="400" y1="0" x2="400" y2="5"/>
										</g>
										<g pointer-events="none">
											<text transform="matrix(1 0 0 1 0 15)" class="st5 st6">−0.4</text>
											<text transform="matrix(1 0 0 1 18.7008 15)" class="st16 st5 st6">−0.3</text>
											<text transform="matrix(1 0 0 1 47.2723 15)" class="st5 st6">−0.2</text>
											<text transform="matrix(1 0 0 1 75.8437 15)" class="st16 st5 st6">−0.1</text>
											<text transform="matrix(1 0 0 1 107.335 15)" class="st5 st6">0.0</text>
											<text transform="matrix(1 0 0 1 135.9064 15)" class="st16 st5 st6">0.1</text>
											<text transform="matrix(1 0 0 1 164.4779 15)" class="st5 st6">0.2</text>
											<text transform="matrix(1 0 0 1 193.0493 15)" class="st16 st5 st6">0.3</text>
											<text transform="matrix(1 0 0 1 221.6207 15)" class="st5 st6">0.4</text>
											<text transform="matrix(1 0 0 1 250.1921 15)" class="st16 st5 st6">0.5</text>
											<text transform="matrix(1 0 0 1 278.7635 15)" class="st5 st6">0.6</text>
											<text transform="matrix(1 0 0 1 307.335 15)" class="st16 st5 st6">0.7</text>
											<text transform="matrix(1 0 0 1 335.9065 15)" class="st5 st6">0.8</text>
											<text transform="matrix(1 0 0 1 364.4779 15)" class="st16 st5 st6">0.9</text>
											<text transform="matrix(1 0 0 1 386.0986 15)" class="st5 st6">1.0</text>
										</g>
										<g pointer-events="none">
											<line class="st4" x1="0" y1="0" x2="400" y2="0"/>
										</g>
									</g>
									<path pointer-events="none" class="st7" d="M0,0"/>
								</g>
							</g>
							<g>
								<path class="st9" d="M114.3,1L114.3,1v18l0,0V1z"/>
								<path class="st10" d="M114.3,1L114.3,1v18l0,0V1z"/>
								<path class="st11" d="M114.3,1L114.3,1v18l0,0V1z"/>
								<path class="st12" d="M114.3,1h114.3v18H114.3V1z"/>
								<path class="st13" d="M228.6,1H400v18H228.6V1z"/>
								<path class="st9" d="M114.3,21L114.3,21v18l0,0V21z"/>
								<path class="st10" d="M114.3,21L114.3,21v18l0,0V21z"/>
								<path class="st11" d="M114.3,21L114.3,21v18l0,0V21z"/>
								<path class="st12" d="M114.3,21h114.3v18H114.3V21z"/>
								<path class="st13" d="M228.6,21H400v18H228.6V21z"/>
								<path class="st9" d="M114.3,41L114.3,41v18l0,0V41z"/>
								<path class="st10" d="M114.3,41L114.3,41v18l0,0V41z"/>
								<path class="st11" d="M114.3,41L114.3,41v18l0,0V41z"/>
								<path class="st12" d="M114.3,41h57.1v18h-57.1L114.3,41z"/>
								<path class="st13" d="M171.4,41H400v18H171.4V41z"/>
								<path class="st9" d="M114.3,61L114.3,61v18l0,0V61z"/>
								<path class="st10" d="M114.3,61L114.3,61v18l0,0V61z"/>
								<path class="st11" d="M114.3,61L114.3,61v18l0,0V61z"/>
								<path class="st12" d="M114.3,61h228.6v18H114.3L114.3,61z"/>
								<path class="st13" d="M342.9,61H400v18h-57.1V61z"/>
								<path class="st9" d="M114.3,81L114.3,81v18l0,0V81z"/>
								<path class="st10" d="M114.3,81L114.3,81v18l0,0V81z"/>
								<path class="st11" d="M114.3,81L114.3,81v18l0,0V81z"/>
								<path class="st12" d="M114.3,81h114.3v18H114.3V81z"/>
								<path class="st13" d="M228.6,81H400v18H228.6V81z"/>
								<path class="st9" d="M114.3,101L114.3,101v18l0,0V101z"/>
								<path class="st10" d="M114.3,101L114.3,101v18l0,0V101z"/>
								<path class="st11" d="M114.3,101L114.3,101v18l0,0V101z"/>
								<path class="st12" d="M114.3,101h114.3v18H114.3V101z"/>
								<path class="st13" d="M228.6,101H400v18H228.6V101z"/>
								<path class="st9" d="M114.3,121L114.3,121v18l0,0V121z"/>
								<path class="st10" d="M114.3,121L114.3,121v18l0,0V121z"/>
								<path class="st11" d="M85.7,121h57.1v18H85.7L85.7,121z"/>
								<path class="st12" d="M142.9,121h114.3v18H142.9V121z"/>
								<path class="st13" d="M257.1,121h114.3v18H257.1V121z"/>
								<path class="st9" d="M114.3,141L114.3,141v18l0,0V141z"/>
								<path class="st10" d="M114.3,141L114.3,141v18l0,0V141z"/>
								<path class="st11" d="M114.3,141L114.3,141v18l0,0V141z"/>
								<path class="st12" d="M114.3,141h171.4v18H114.3L114.3,141z"/>
								<path class="st13" d="M285.7,141H400v18H285.7V141z"/>
								<path class="st9" d="M114.3,161L114.3,161v18l0,0V161z"/>
								<path class="st10" d="M114.3,161L114.3,161v18l0,0V161z"/>
								<path class="st11" d="M57.1,161h114.3v18H57.1L57.1,161z"/>
								<path class="st12" d="M171.4,161h57.1v18h-57.1V161z"/>
								<path class="st13" d="M228.6,161h114.3v18H228.6L228.6,161z"/>
								<path class="st9" d="M114.3,181L114.3,181v18l0,0V181z"/>
								<path class="st10" d="M28.6,181h57.1v18H28.6L28.6,181z"/>
								<path class="st11" d="M85.7,181h57.1v18H85.7L85.7,181z"/>
								<path class="st12" d="M142.9,181L142.9,181v18l0,0V181z"/>
								<path class="st13" d="M142.9,181h171.4v18H142.9L142.9,181z"/>
							</g>
							<g>
								<g transform="translate(200,-17)">
									<path pointer-events="none" class="st1" d="M0,0L0,0L0,0L0,0z"/>
									<g>
										<g pointer-events="none">
											<text transform="matrix(1 0 0 1 -34.3059 10)" class="st14 st15">Post-Study</text>
										</g>
									</g>
									<path pointer-events="none" class="st8" d="M0,0"/>
								</g>
							</g>
						</g>
						<path class="st8" d="M0,0"/>
					</g>
				</g>
				<g>
					<g transform="translate(844,0)">
						<path pointer-events="none" class="st1" d="M0,0h135v63H0V0z"/>
						<g>
							<g>
								<g transform="translate(0,0)">
									<path pointer-events="none" class="st1" d="M0,0L0,0L0,0L0,0z"/>
									<g>
										<g>
											<g transform="translate(0,0)">
												<path pointer-events="none" class="st1" d="M0,0h135v11H0V0z"/>
												<g>
													<g pointer-events="none">
														<path class="st9" d="M1,1h10v10H1V1z"/>
													</g>
													<g pointer-events="none">
														<text transform="matrix(1 0 0 1 16 9)" class="st5 st6">Strongly disagree</text>
													</g>
												</g>
												<path pointer-events="none" class="st8" d="M0,0"/>
											</g>
											<g transform="translate(0,13)">
												<path pointer-events="none" class="st1" d="M0,0h135v11H0V0z"/>
												<g>
													<g pointer-events="none">
														<path class="st10" d="M1,1h10v10H1V1z"/>
													</g>
													<g pointer-events="none">
														<text transform="matrix(1 0 0 1 16 9)" class="st5 st6">Disagree</text>
													</g>
												</g>
												<path pointer-events="none" class="st8" d="M0,0"/>
											</g>
											<g transform="translate(0,26)">
												<path pointer-events="none" class="st1" d="M0,0h135v11H0V0z"/>
												<g>
													<g pointer-events="none">
														<path class="st11" d="M1,1h10v10H1V1z"/>
													</g>
													<g pointer-events="none">
														<text transform="matrix(1 0 0 1 16 9)" class="st5 st6">Neither agree nor disagree</text>
													</g>
												</g>
												<path pointer-events="none" class="st8" d="M0,0"/>
											</g>
											<g transform="translate(0,39)">
												<path pointer-events="none" class="st1" d="M0,0h135v11H0V0z"/>
												<g>
													<g pointer-events="none">
														<path class="st12" d="M1,1h10v10H1V1z"/>
													</g>
													<g pointer-events="none">
														<text transform="matrix(1 0 0 1 16 9)" class="st5 st6">Agree</text>
													</g>
												</g>
												<path pointer-events="none" class="st8" d="M0,0"/>
											</g>
											<g transform="translate(0,52)">
												<path pointer-events="none" class="st1" d="M0,0h135v11H0V0z"/>
												<g>
													<g pointer-events="none">
														<path class="st13" d="M1,1h10v10H1V1z"/>
													</g>
													<g pointer-events="none">
														<text transform="matrix(1 0 0 1 16 9)" class="st5 st6">Strongly agree</text>
													</g>
												</g>
												<path pointer-events="none" class="st8" d="M0,0"/>
											</g>
										</g>
									</g>
									<path pointer-events="none" class="st8" d="M0,0"/>
								</g>
							</g>
						</g>
						<path pointer-events="none" class="st8" d="M0,0"/>
					</g>
				</g>
			</g>
			<path class="st8" d="M0,0"/>
		</g>
	</g>
</g>
</svg>
