<svg xmlns="http://www.w3.org/2000/svg" xmlns:xlink="http://www.w3.org/1999/xlink" version="1.1" class="marks" width="1412" height="246" viewBox="0 0 1412 246"><rect width="1412" height="246" fill="white"/><g fill="none" stroke-miterlimit="10" transform="translate(428,23)"><g class="mark-group role-frame root" role="graphics-object" aria-roledescription="group mark container"><g transform="translate(0,0)"><path class="background" aria-hidden="true" d="M0,0h0v0h0Z"/><g><g class="mark-group role-scope concat_0_group" role="graphics-object" aria-roledescription="group mark container"><g transform="translate(0,0)"><path class="background" aria-hidden="true" d="M0.5,0.5h400v200h-400Z" stroke="#ddd"/><g><g class="mark-group role-axis" role="graphics-symbol" aria-roledescription="axis" aria-label="X-axis for a linear scale with values from −0.4 to 1.0"><g transform="translate(0.5,200.5)"><path class="background" aria-hidden="true" d="M0,0h0v0h0Z" pointer-events="none"/><g><g class="mark-rule role-axis-grid" pointer-events="none"><line transform="translate(0,0)" x2="0" y2="-200" stroke="#ddd" stroke-width="1" opacity="1"/><line transform="translate(29,0)" x2="0" y2="-200" stroke="#ddd" stroke-width="1" opacity="1"/><line transform="translate(57,0)" x2="0" y2="-200" stroke="#ddd" stroke-width="1" opacity="1"/><line transform="translate(86,0)" x2="0" y2="-200" stroke="#ddd" stroke-width="1" opacity="1"/><line transform="translate(114,0)" x2="0" y2="-200" stroke="#ddd" stroke-width="1" opacity="1"/><line transform="translate(143,0)" x2="0" y2="-200" stroke="#ddd" stroke-width="1" opacity="1"/><line transform="translate(171,0)" x2="0" y2="-200" stroke="#ddd" stroke-width="1" opacity="1"/><line transform="translate(200,0)" x2="0" y2="-200" stroke="#ddd" stroke-width="1" opacity="1"/><line transform="translate(229,0)" x2="0" y2="-200" stroke="#ddd" stroke-width="1" opacity="1"/><line transform="translate(257,0)" x2="0" y2="-200" stroke="#ddd" stroke-width="1" opacity="1"/><line transform="translate(286,0)" x2="0" y2="-200" stroke="#ddd" stroke-width="1" opacity="1"/><line transform="translate(314,0)" x2="0" y2="-200" stroke="#ddd" stroke-width="1" opacity="1"/><line transform="translate(343,0)" x2="0" y2="-200" stroke="#ddd" stroke-width="1" opacity="1"/><line transform="translate(371,0)" x2="0" y2="-200" stroke="#ddd" stroke-width="1" opacity="1"/><line transform="translate(400,0)" x2="0" y2="-200" stroke="#ddd" stroke-width="1" opacity="1"/></g></g><path class="foreground" aria-hidden="true" d="" pointer-events="none" display="none"/></g></g><g class="mark-group role-axis" role="graphics-symbol" aria-roledescription="axis" aria-label="X-axis for a linear scale with values from −0.4 to 1.0"><g transform="translate(0.5,200.5)"><path class="background" aria-hidden="true" d="M0,0h0v0h0Z" pointer-events="none"/><g><g class="mark-rule role-axis-tick" pointer-events="none"><line transform="translate(0,0)" x2="0" y2="5" stroke="#888" stroke-width="1" opacity="1"/><line transform="translate(29,0)" x2="0" y2="5" stroke="#888" stroke-width="1" opacity="1"/><line transform="translate(57,0)" x2="0" y2="5" stroke="#888" stroke-width="1" opacity="1"/><line transform="translate(86,0)" x2="0" y2="5" stroke="#888" stroke-width="1" opacity="1"/><line transform="translate(114,0)" x2="0" y2="5" stroke="#888" stroke-width="1" opacity="1"/><line transform="translate(143,0)" x2="0" y2="5" stroke="#888" stroke-width="1" opacity="1"/><line transform="translate(171,0)" x2="0" y2="5" stroke="#888" stroke-width="1" opacity="1"/><line transform="translate(200,0)" x2="0" y2="5" stroke="#888" stroke-width="1" opacity="1"/><line transform="translate(229,0)" x2="0" y2="5" stroke="#888" stroke-width="1" opacity="1"/><line transform="translate(257,0)" x2="0" y2="5" stroke="#888" stroke-width="1" opacity="1"/><line transform="translate(286,0)" x2="0" y2="5" stroke="#888" stroke-width="1" opacity="1"/><line transform="translate(314,0)" x2="0" y2="5" stroke="#888" stroke-width="1" opacity="1"/><line transform="translate(343,0)" x2="0" y2="5" stroke="#888" stroke-width="1" opacity="1"/><line transform="translate(371,0)" x2="0" y2="5" stroke="#888" stroke-width="1" opacity="1"/><line transform="translate(400,0)" x2="0" y2="5" stroke="#888" stroke-width="1" opacity="1"/></g><g class="mark-text role-axis-label" pointer-events="none"><text text-anchor="start" transform="translate(0,15)" font-family="sans-serif" font-size="10px" fill="#000" opacity="1">−0.4</text><text text-anchor="middle" transform="translate(28.57142857142858,15)" font-family="sans-serif" font-size="10px" fill="#000" opacity="0">−0.3</text><text text-anchor="middle" transform="translate(57.14285714285715,15)" font-family="sans-serif" font-size="10px" fill="#000" opacity="1">−0.2</text><text text-anchor="middle" transform="translate(85.71428571428574,15)" font-family="sans-serif" font-size="10px" fill="#000" opacity="0">−0.1</text><text text-anchor="middle" transform="translate(114.2857142857143,15)" font-family="sans-serif" font-size="10px" fill="#000" opacity="1">0.0</text><text text-anchor="middle" transform="translate(142.85714285714286,15)" font-family="sans-serif" font-size="10px" fill="#000" opacity="0">0.1</text><text text-anchor="middle" transform="translate(171.42857142857147,15)" font-family="sans-serif" font-size="10px" fill="#000" opacity="1">0.2</text><text text-anchor="middle" transform="translate(200,15)" font-family="sans-serif" font-size="10px" fill="#000" opacity="0">0.3</text><text text-anchor="middle" transform="translate(228.5714285714286,15)" font-family="sans-serif" font-size="10px" fill="#000" opacity="1">0.4</text><text text-anchor="middle" transform="translate(257.14285714285717,15)" font-family="sans-serif" font-size="10px" fill="#000" opacity="0">0.5</text><text text-anchor="middle" transform="translate(285.7142857142857,15)" font-family="sans-serif" font-size="10px" fill="#000" opacity="1">0.6</text><text text-anchor="middle" transform="translate(314.28571428571433,15)" font-family="sans-serif" font-size="10px" fill="#000" opacity="0">0.7</text><text text-anchor="middle" transform="translate(342.85714285714295,15)" font-family="sans-serif" font-size="10px" fill="#000" opacity="1">0.8</text><text text-anchor="middle" transform="translate(371.4285714285715,15)" font-family="sans-serif" font-size="10px" fill="#000" opacity="0">0.9</text><text text-anchor="end" transform="translate(400,15)" font-family="sans-serif" font-size="10px" fill="#000" opacity="1">1.0</text></g><g class="mark-rule role-axis-domain" pointer-events="none"><line transform="translate(0,0)" x2="400" y2="0" stroke="#888" stroke-width="1" opacity="1"/></g></g><path class="foreground" aria-hidden="true" d="" pointer-events="none" display="none"/></g></g><g class="mark-group role-axis" role="graphics-symbol" aria-roledescription="axis" aria-label="Y-axis for a discrete scale with 10 values: Q1: I have friends available to me at work, Q2: I have one or more co-workers available who I talk to about day-to-day problems at work, Q3: I have co-workers available whom I can depend on when I have a problem, Q4: I have enough people available at work with whom I can talk about my job, Q5: I have people around me at work, ending with Q10: My supervisor communicates my achievements to upper management"><g transform="translate(-9.5,0.5)"><path class="background" aria-hidden="true" d="M0,0h0v0h0Z" pointer-events="none"/><g><g class="mark-text role-axis-label" pointer-events="none"><text text-anchor="end" transform="translate(-2,12.5)" font-family="sans-serif" font-size="10px" fill="#000" opacity="1">Q1: I have friends available to me at work</text><text text-anchor="end" transform="translate(-2,32.5)" font-family="sans-serif" font-size="10px" fill="#000" opacity="1">Q2: I have one or more co-workers available who I talk to about day-to-day problems at work</text><text text-anchor="end" transform="translate(-2,52.5)" font-family="sans-serif" font-size="10px" fill="#000" opacity="1">Q3: I have co-workers available whom I can depend on when I have a problem</text><text text-anchor="end" transform="translate(-2,72.5)" font-family="sans-serif" font-size="10px" fill="#000" opacity="1">Q4: I have enough people available at work with whom I can talk about my job</text><text text-anchor="end" transform="translate(-2,92.5)" font-family="sans-serif" font-size="10px" fill="#000" opacity="1">Q5: I have people around me at work</text><text text-anchor="end" transform="translate(-2,112.5)" font-family="sans-serif" font-size="10px" fill="#000" opacity="1">Q6: I am well integrated with the department/company where I work</text><text text-anchor="end" transform="translate(-2,132.5)" font-family="sans-serif" font-size="10px" fill="#000" opacity="1">Q7: I am kept in the loop regarding company social events/functions</text><text text-anchor="end" transform="translate(-2,152.5)" font-family="sans-serif" font-size="10px" fill="#000" opacity="1">Q8: I am part of the company network</text><text text-anchor="end" transform="translate(-2,172.5)" font-family="sans-serif" font-size="10px" fill="#000" opacity="1">Q9: Upper management knows about my achievements</text><text text-anchor="end" transform="translate(-2,192.5)" font-family="sans-serif" font-size="10px" fill="#000" opacity="1">Q10: My supervisor communicates my achievements to upper management</text></g></g><path class="foreground" aria-hidden="true" d="" pointer-events="none" display="none"/></g></g><g class="mark-rect role-mark concat_0_marks" role="graphics-symbol" aria-roledescription="rect mark container"><path d="M114.2857142857143,1h0v18h0Z" fill="#c30d24"/><path d="M114.2857142857143,1h0v18h0Z" fill="#f3a583"/><path d="M114.2857142857143,1h0v18h0Z" fill="#cccccc"/><path d="M114.2857142857143,1h228.57142857142864v18h-228.57142857142864Z" fill="#94c6da"/><path d="M342.85714285714295,1h57.14285714285705v18h-57.14285714285705Z" fill="#1770ab"/><path d="M114.2857142857143,21h0v18h0Z" fill="#c30d24"/><path d="M114.2857142857143,21h0v18h0Z" fill="#f3a583"/><path d="M114.2857142857143,21h0v18h0Z" fill="#cccccc"/><path d="M114.2857142857143,21h228.57142857142864v18h-228.57142857142864Z" fill="#94c6da"/><path d="M342.85714285714295,21h57.14285714285705v18h-57.14285714285705Z" fill="#1770ab"/><path d="M114.2857142857143,41h0v18h0Z" fill="#c30d24"/><path d="M114.2857142857143,41h0v18h0Z" fill="#f3a583"/><path d="M114.2857142857143,41h0v18h0Z" fill="#cccccc"/><path d="M114.2857142857143,41h114.2857142857143v18h-114.2857142857143Z" fill="#94c6da"/><path d="M228.5714285714286,41h171.4285714285714v18h-171.4285714285714Z" fill="#1770ab"/><path d="M114.2857142857143,61h0v18h0Z" fill="#c30d24"/><path d="M114.2857142857143,61h0v18h0Z" fill="#f3a583"/><path d="M114.2857142857143,61h0v18h0Z" fill="#cccccc"/><path d="M114.2857142857143,61h114.2857142857143v18h-114.2857142857143Z" fill="#94c6da"/><path d="M228.5714285714286,61h171.4285714285714v18h-171.4285714285714Z" fill="#1770ab"/><path d="M114.2857142857143,81h0v18h0Z" fill="#c30d24"/><path d="M114.2857142857143,81h0v18h0Z" fill="#f3a583"/><path d="M85.71428571428574,81h57.142857142857125v18h-57.142857142857125Z" fill="#cccccc"/><path d="M142.85714285714286,81h114.2857142857143v18h-114.2857142857143Z" fill="#94c6da"/><path d="M257.14285714285717,81h114.28571428571433v18h-114.28571428571433Z" fill="#1770ab"/><path d="M114.2857142857143,101h0v18h0Z" fill="#c30d24"/><path d="M114.2857142857143,101h0v18h0Z" fill="#f3a583"/><path d="M114.2857142857143,101h0v18h0Z" fill="#cccccc"/><path d="M114.2857142857143,101h171.42857142857142v18h-171.42857142857142Z" fill="#94c6da"/><path d="M285.7142857142857,101h114.28571428571428v18h-114.28571428571428Z" fill="#1770ab"/><path d="M114.2857142857143,121h0v18h0Z" fill="#c30d24"/><path d="M114.2857142857143,121h0v18h0Z" fill="#f3a583"/><path d="M85.71428571428574,121h57.142857142857125v18h-57.142857142857125Z" fill="#cccccc"/><path d="M142.85714285714286,121h114.2857142857143v18h-114.2857142857143Z" fill="#94c6da"/><path d="M257.14285714285717,121h114.28571428571433v18h-114.28571428571433Z" fill="#1770ab"/><path d="M114.2857142857143,141h0v18h0Z" fill="#c30d24"/><path d="M114.2857142857143,141h0v18h0Z" fill="#f3a583"/><path d="M114.2857142857143,141h0v18h0Z" fill="#cccccc"/><path d="M114.2857142857143,141h114.2857142857143v18h-114.2857142857143Z" fill="#94c6da"/><path d="M228.5714285714286,141h171.4285714285714v18h-171.4285714285714Z" fill="#1770ab"/><path d="M114.2857142857143,161h0v18h0Z" fill="#c30d24"/><path d="M57.14285714285715,161h57.14285714285715v18h-57.14285714285715Z" fill="#f3a583"/><path d="M114.2857142857143,161h0v18h0Z" fill="#cccccc"/><path d="M114.2857142857143,161h171.42857142857142v18h-171.42857142857142Z" fill="#94c6da"/><path d="M285.7142857142857,161h57.142857142857224v18h-57.142857142857224Z" fill="#1770ab"/><path d="M114.2857142857143,181h0v18h0Z" fill="#c30d24"/><path d="M57.14285714285715,181h57.14285714285715v18h-57.14285714285715Z" fill="#f3a583"/><path d="M114.2857142857143,181h0v18h0Z" fill="#cccccc"/><path d="M114.2857142857143,181h171.42857142857142v18h-171.42857142857142Z" fill="#94c6da"/><path d="M285.7142857142857,181h57.142857142857224v18h-57.142857142857224Z" fill="#1770ab"/></g><g class="mark-group role-title"><g transform="translate(200,-17)"><path class="background" aria-hidden="true" d="M0,0h0v0h0Z" pointer-events="none"/><g><g class="mark-text role-title-text" role="graphics-symbol" aria-roledescription="title" aria-label="Title text 'Pre-Study'" pointer-events="none"><text text-anchor="middle" transform="translate(0,10)" font-family="sans-serif" font-size="13px" font-weight="bold" fill="#000" opacity="1">Pre-Study</text></g></g><path class="foreground" aria-hidden="true" d="" pointer-events="none" display="none"/></g></g></g><path class="foreground" aria-hidden="true" d="" display="none"/></g></g><g class="mark-group role-scope concat_1_group" role="graphics-object" aria-roledescription="group mark container"><g transform="translate(424,0)"><path class="background" aria-hidden="true" d="M0.5,0.5h400v200h-400Z" stroke="#ddd"/><g><g class="mark-group role-axis" role="graphics-symbol" aria-roledescription="axis" aria-label="X-axis for a linear scale with values from −0.4 to 1.0"><g transform="translate(0.5,200.5)"><path class="background" aria-hidden="true" d="M0,0h0v0h0Z" pointer-events="none"/><g><g class="mark-rule role-axis-grid" pointer-events="none"><line transform="translate(0,0)" x2="0" y2="-200" stroke="#ddd" stroke-width="1" opacity="1"/><line transform="translate(29,0)" x2="0" y2="-200" stroke="#ddd" stroke-width="1" opacity="1"/><line transform="translate(57,0)" x2="0" y2="-200" stroke="#ddd" stroke-width="1" opacity="1"/><line transform="translate(86,0)" x2="0" y2="-200" stroke="#ddd" stroke-width="1" opacity="1"/><line transform="translate(114,0)" x2="0" y2="-200" stroke="#ddd" stroke-width="1" opacity="1"/><line transform="translate(143,0)" x2="0" y2="-200" stroke="#ddd" stroke-width="1" opacity="1"/><line transform="translate(171,0)" x2="0" y2="-200" stroke="#ddd" stroke-width="1" opacity="1"/><line transform="translate(200,0)" x2="0" y2="-200" stroke="#ddd" stroke-width="1" opacity="1"/><line transform="translate(229,0)" x2="0" y2="-200" stroke="#ddd" stroke-width="1" opacity="1"/><line transform="translate(257,0)" x2="0" y2="-200" stroke="#ddd" stroke-width="1" opacity="1"/><line transform="translate(286,0)" x2="0" y2="-200" stroke="#ddd" stroke-width="1" opacity="1"/><line transform="translate(314,0)" x2="0" y2="-200" stroke="#ddd" stroke-width="1" opacity="1"/><line transform="translate(343,0)" x2="0" y2="-200" stroke="#ddd" stroke-width="1" opacity="1"/><line transform="translate(371,0)" x2="0" y2="-200" stroke="#ddd" stroke-width="1" opacity="1"/><line transform="translate(400,0)" x2="0" y2="-200" stroke="#ddd" stroke-width="1" opacity="1"/></g></g><path class="foreground" aria-hidden="true" d="" pointer-events="none" display="none"/></g></g><g class="mark-group role-axis" role="graphics-symbol" aria-roledescription="axis" aria-label="X-axis for a linear scale with values from −0.4 to 1.0"><g transform="translate(0.5,200.5)"><path class="background" aria-hidden="true" d="M0,0h0v0h0Z" pointer-events="none"/><g><g class="mark-rule role-axis-tick" pointer-events="none"><line transform="translate(0,0)" x2="0" y2="5" stroke="#888" stroke-width="1" opacity="1"/><line transform="translate(29,0)" x2="0" y2="5" stroke="#888" stroke-width="1" opacity="1"/><line transform="translate(57,0)" x2="0" y2="5" stroke="#888" stroke-width="1" opacity="1"/><line transform="translate(86,0)" x2="0" y2="5" stroke="#888" stroke-width="1" opacity="1"/><line transform="translate(114,0)" x2="0" y2="5" stroke="#888" stroke-width="1" opacity="1"/><line transform="translate(143,0)" x2="0" y2="5" stroke="#888" stroke-width="1" opacity="1"/><line transform="translate(171,0)" x2="0" y2="5" stroke="#888" stroke-width="1" opacity="1"/><line transform="translate(200,0)" x2="0" y2="5" stroke="#888" stroke-width="1" opacity="1"/><line transform="translate(229,0)" x2="0" y2="5" stroke="#888" stroke-width="1" opacity="1"/><line transform="translate(257,0)" x2="0" y2="5" stroke="#888" stroke-width="1" opacity="1"/><line transform="translate(286,0)" x2="0" y2="5" stroke="#888" stroke-width="1" opacity="1"/><line transform="translate(314,0)" x2="0" y2="5" stroke="#888" stroke-width="1" opacity="1"/><line transform="translate(343,0)" x2="0" y2="5" stroke="#888" stroke-width="1" opacity="1"/><line transform="translate(371,0)" x2="0" y2="5" stroke="#888" stroke-width="1" opacity="1"/><line transform="translate(400,0)" x2="0" y2="5" stroke="#888" stroke-width="1" opacity="1"/></g><g class="mark-text role-axis-label" pointer-events="none"><text text-anchor="start" transform="translate(0,15)" font-family="sans-serif" font-size="10px" fill="#000" opacity="1">−0.4</text><text text-anchor="middle" transform="translate(28.57142857142858,15)" font-family="sans-serif" font-size="10px" fill="#000" opacity="0">−0.3</text><text text-anchor="middle" transform="translate(57.14285714285715,15)" font-family="sans-serif" font-size="10px" fill="#000" opacity="1">−0.2</text><text text-anchor="middle" transform="translate(85.71428571428574,15)" font-family="sans-serif" font-size="10px" fill="#000" opacity="0">−0.1</text><text text-anchor="middle" transform="translate(114.2857142857143,15)" font-family="sans-serif" font-size="10px" fill="#000" opacity="1">0.0</text><text text-anchor="middle" transform="translate(142.85714285714286,15)" font-family="sans-serif" font-size="10px" fill="#000" opacity="0">0.1</text><text text-anchor="middle" transform="translate(171.42857142857147,15)" font-family="sans-serif" font-size="10px" fill="#000" opacity="1">0.2</text><text text-anchor="middle" transform="translate(200,15)" font-family="sans-serif" font-size="10px" fill="#000" opacity="0">0.3</text><text text-anchor="middle" transform="translate(228.5714285714286,15)" font-family="sans-serif" font-size="10px" fill="#000" opacity="1">0.4</text><text text-anchor="middle" transform="translate(257.14285714285717,15)" font-family="sans-serif" font-size="10px" fill="#000" opacity="0">0.5</text><text text-anchor="middle" transform="translate(285.7142857142857,15)" font-family="sans-serif" font-size="10px" fill="#000" opacity="1">0.6</text><text text-anchor="middle" transform="translate(314.28571428571433,15)" font-family="sans-serif" font-size="10px" fill="#000" opacity="0">0.7</text><text text-anchor="middle" transform="translate(342.85714285714295,15)" font-family="sans-serif" font-size="10px" fill="#000" opacity="1">0.8</text><text text-anchor="middle" transform="translate(371.4285714285715,15)" font-family="sans-serif" font-size="10px" fill="#000" opacity="0">0.9</text><text text-anchor="end" transform="translate(400,15)" font-family="sans-serif" font-size="10px" fill="#000" opacity="1">1.0</text></g><g class="mark-rule role-axis-domain" pointer-events="none"><line transform="translate(0,0)" x2="400" y2="0" stroke="#888" stroke-width="1" opacity="1"/></g></g><path class="foreground" aria-hidden="true" d="" pointer-events="none" display="none"/></g></g><g class="mark-rect role-mark concat_1_marks" role="graphics-symbol" aria-roledescription="rect mark container"><path d="M114.2857142857143,1h0v18h0Z" fill="#c30d24"/><path d="M114.2857142857143,1h0v18h0Z" fill="#f3a583"/><path d="M114.2857142857143,1h0v18h0Z" fill="#cccccc"/><path d="M114.2857142857143,1h114.2857142857143v18h-114.2857142857143Z" fill="#94c6da"/><path d="M228.5714285714286,1h171.4285714285714v18h-171.4285714285714Z" fill="#1770ab"/><path d="M114.2857142857143,21h0v18h0Z" fill="#c30d24"/><path d="M114.2857142857143,21h0v18h0Z" fill="#f3a583"/><path d="M114.2857142857143,21h0v18h0Z" fill="#cccccc"/><path d="M114.2857142857143,21h114.2857142857143v18h-114.2857142857143Z" fill="#94c6da"/><path d="M228.5714285714286,21h171.4285714285714v18h-171.4285714285714Z" fill="#1770ab"/><path d="M114.2857142857143,41h0v18h0Z" fill="#c30d24"/><path d="M114.2857142857143,41h0v18h0Z" fill="#f3a583"/><path d="M114.2857142857143,41h0v18h0Z" fill="#cccccc"/><path d="M114.2857142857143,41h57.14285714285717v18h-57.14285714285717Z" fill="#94c6da"/><path d="M171.42857142857147,41h228.57142857142853v18h-228.57142857142853Z" fill="#1770ab"/><path d="M114.2857142857143,61h0v18h0Z" fill="#c30d24"/><path d="M114.2857142857143,61h0v18h0Z" fill="#f3a583"/><path d="M114.2857142857143,61h0v18h0Z" fill="#cccccc"/><path d="M114.2857142857143,61h228.57142857142864v18h-228.57142857142864Z" fill="#94c6da"/><path d="M342.85714285714295,61h57.14285714285705v18h-57.14285714285705Z" fill="#1770ab"/><path d="M114.2857142857143,81h0v18h0Z" fill="#c30d24"/><path d="M114.2857142857143,81h0v18h0Z" fill="#f3a583"/><path d="M114.2857142857143,81h0v18h0Z" fill="#cccccc"/><path d="M114.2857142857143,81h114.2857142857143v18h-114.2857142857143Z" fill="#94c6da"/><path d="M228.5714285714286,81h171.4285714285714v18h-171.4285714285714Z" fill="#1770ab"/><path d="M114.2857142857143,101h0v18h0Z" fill="#c30d24"/><path d="M114.2857142857143,101h0v18h0Z" fill="#f3a583"/><path d="M114.2857142857143,101h0v18h0Z" fill="#cccccc"/><path d="M114.2857142857143,101h114.2857142857143v18h-114.2857142857143Z" fill="#94c6da"/><path d="M228.5714285714286,101h171.4285714285714v18h-171.4285714285714Z" fill="#1770ab"/><path d="M114.2857142857143,121h0v18h0Z" fill="#c30d24"/><path d="M114.2857142857143,121h0v18h0Z" fill="#f3a583"/><path d="M85.71428571428574,121h57.142857142857125v18h-57.142857142857125Z" fill="#cccccc"/><path d="M142.85714285714286,121h114.2857142857143v18h-114.2857142857143Z" fill="#94c6da"/><path d="M257.14285714285717,121h114.28571428571433v18h-114.28571428571433Z" fill="#1770ab"/><path d="M114.2857142857143,141h0v18h0Z" fill="#c30d24"/><path d="M114.2857142857143,141h0v18h0Z" fill="#f3a583"/><path d="M114.2857142857143,141h0v18h0Z" fill="#cccccc"/><path d="M114.2857142857143,141h171.42857142857142v18h-171.42857142857142Z" fill="#94c6da"/><path d="M285.7142857142857,141h114.28571428571428v18h-114.28571428571428Z" fill="#1770ab"/><path d="M114.2857142857143,161h0v18h0Z" fill="#c30d24"/><path d="M114.2857142857143,161h0v18h0Z" fill="#f3a583"/><path d="M57.14285714285715,161h114.28571428571432v18h-114.28571428571432Z" fill="#cccccc"/><path d="M171.42857142857147,161h57.14285714285714v18h-57.14285714285714Z" fill="#94c6da"/><path d="M228.5714285714286,161h114.28571428571433v18h-114.28571428571433Z" fill="#1770ab"/><path d="M114.2857142857143,181h0v18h0Z" fill="#c30d24"/><path d="M28.571428571428566,181h57.14285714285717v18h-57.14285714285717Z" fill="#f3a583"/><path d="M85.71428571428574,181h57.142857142857125v18h-57.142857142857125Z" fill="#cccccc"/><path d="M142.85714285714286,181h0v18h0Z" fill="#94c6da"/><path d="M142.85714285714286,181h171.42857142857147v18h-171.42857142857147Z" fill="#1770ab"/></g><g class="mark-group role-title"><g transform="translate(200,-17)"><path class="background" aria-hidden="true" d="M0,0h0v0h0Z" pointer-events="none"/><g><g class="mark-text role-title-text" role="graphics-symbol" aria-roledescription="title" aria-label="Title text 'Post-Study'" pointer-events="none"><text text-anchor="middle" transform="translate(0,10)" font-family="sans-serif" font-size="13px" font-weight="bold" fill="#000" opacity="1">Post-Study</text></g></g><path class="foreground" aria-hidden="true" d="" pointer-events="none" display="none"/></g></g></g><path class="foreground" aria-hidden="true" d="" display="none"/></g></g><g class="mark-group role-legend" role="graphics-symbol" aria-roledescription="legend" aria-label="Symbol legend for fill color with 5 values: Strongly disagree, Disagree, Neither agree nor disagree, Agree, Strongly agree"><g transform="translate(844,0)"><path class="background" aria-hidden="true" d="M0,0h135v63h-135Z" pointer-events="none"/><g><g class="mark-group role-legend-entry"><g transform="translate(0,0)"><path class="background" aria-hidden="true" d="M0,0h0v0h0Z" pointer-events="none"/><g><g class="mark-group role-scope" role="graphics-object" aria-roledescription="group mark container"><g transform="translate(0,0)"><path class="background" aria-hidden="true" d="M0,0h134.9599609375v11h-134.9599609375Z" pointer-events="none" opacity="1"/><g><g class="mark-symbol role-legend-symbol" pointer-events="none"><path transform="translate(6,6)" d="M-5,-5h10v10h-10Z" fill="#c30d24" stroke-width="1.5" opacity="1"/></g><g class="mark-text role-legend-label" pointer-events="none"><text text-anchor="start" transform="translate(16,9)" font-family="sans-serif" font-size="10px" fill="#000" opacity="1">Strongly disagree</text></g></g><path class="foreground" aria-hidden="true" d="" pointer-events="none" display="none"/></g><g transform="translate(0,13)"><path class="background" aria-hidden="true" d="M0,0h134.9599609375v11h-134.9599609375Z" pointer-events="none" opacity="1"/><g><g class="mark-symbol role-legend-symbol" pointer-events="none"><path transform="translate(6,6)" d="M-5,-5h10v10h-10Z" fill="#f3a583" stroke-width="1.5" opacity="1"/></g><g class="mark-text role-legend-label" pointer-events="none"><text text-anchor="start" transform="translate(16,9)" font-family="sans-serif" font-size="10px" fill="#000" opacity="1">Disagree</text></g></g><path class="foreground" aria-hidden="true" d="" pointer-events="none" display="none"/></g><g transform="translate(0,26)"><path class="background" aria-hidden="true" d="M0,0h134.9599609375v11h-134.9599609375Z" pointer-events="none" opacity="1"/><g><g class="mark-symbol role-legend-symbol" pointer-events="none"><path transform="translate(6,6)" d="M-5,-5h10v10h-10Z" fill="#cccccc" stroke-width="1.5" opacity="1"/></g><g class="mark-text role-legend-label" pointer-events="none"><text text-anchor="start" transform="translate(16,9)" font-family="sans-serif" font-size="10px" fill="#000" opacity="1">Neither agree nor disagree</text></g></g><path class="foreground" aria-hidden="true" d="" pointer-events="none" display="none"/></g><g transform="translate(0,39)"><path class="background" aria-hidden="true" d="M0,0h134.9599609375v11h-134.9599609375Z" pointer-events="none" opacity="1"/><g><g class="mark-symbol role-legend-symbol" pointer-events="none"><path transform="translate(6,6)" d="M-5,-5h10v10h-10Z" fill="#94c6da" stroke-width="1.5" opacity="1"/></g><g class="mark-text role-legend-label" pointer-events="none"><text text-anchor="start" transform="translate(16,9)" font-family="sans-serif" font-size="10px" fill="#000" opacity="1">Agree</text></g></g><path class="foreground" aria-hidden="true" d="" pointer-events="none" display="none"/></g><g transform="translate(0,52)"><path class="background" aria-hidden="true" d="M0,0h134.9599609375v11h-134.9599609375Z" pointer-events="none" opacity="1"/><g><g class="mark-symbol role-legend-symbol" pointer-events="none"><path transform="translate(6,6)" d="M-5,-5h10v10h-10Z" fill="#1770ab" stroke-width="1.5" opacity="1"/></g><g class="mark-text role-legend-label" pointer-events="none"><text text-anchor="start" transform="translate(16,9)" font-family="sans-serif" font-size="10px" fill="#000" opacity="1">Strongly agree</text></g></g><path class="foreground" aria-hidden="true" d="" pointer-events="none" display="none"/></g></g></g><path class="foreground" aria-hidden="true" d="" pointer-events="none" display="none"/></g></g></g><path class="foreground" aria-hidden="true" d="" pointer-events="none" display="none"/></g></g></g><path class="foreground" aria-hidden="true" d="" display="none"/></g></g></g></svg>